#N canvas 499 99 511 464 10;
#X obj 104 296 throw~ out;
#X obj 99 171 readsf~;
#X msg 99 141 open \$1.wav \, start;
#X obj 99 57 timer_set \$1 \$2;
#X obj 99 89 symbol \$3;
#X obj 17 97 r reset;
#X msg 17 126 stop;
#X obj 184 249 *~ 0.5;
#X obj 45 200 bng 15 250 50 0 empty empty empty 17 7 0 10 -262144 -1
-1;
#X connect 1 0 7 0;
#X connect 2 0 1 0;
#X connect 3 0 4 0;
#X connect 4 0 2 0;
#X connect 5 0 6 0;
#X connect 6 0 1 0;
#X connect 7 0 0 0;
#X connect 8 0 1 0;
