#N canvas 0 0 450 300 10;
#X obj -86 58 s karao;
#X msg -105 197 stop;
#X obj -127 232 writesf~;
#X obj -105 170 bng 15 250 50 0 empty empty empty 17 7 0 10 -262144
-1 -1;
#X obj -127 57 bng 15 250 50 0 empty empty empty 17 7 0 10 -262144
-1 -1;
#X obj -127 34 timer_set \$1 \$2;
#X obj -105 146 timer_set \$3 \$4;
#X obj -127 90 symbol \$5;
#X msg -127 121 open \$1.wav \, start;
#X obj -188 158 r~ in;
#X connect 1 0 2 0;
#X connect 3 0 1 0;
#X connect 4 0 7 0;
#X connect 5 0 4 0;
#X connect 5 0 0 0;
#X connect 6 0 3 0;
#X connect 7 0 8 0;
#X connect 8 0 2 0;
#X connect 9 0 2 0;
